<svg xmlns="http://www.w3.org/2000/svg" viewBox="0 0 128 128" role="img" aria-label="bunIn favicon">
  <defs>
    <linearGradient id="bg" x1="0" y1="0" x2="1" y2="1">
      <stop offset="0" stop-color="#11110f"/>
      <stop offset="1" stop-color="#1b1712"/>
    </linearGradient>
    <linearGradient id="mark" x1="0" y1="0" x2="1" y2="1">
      <stop offset="0" stop-color="#ff4e57"/>
      <stop offset="0.62" stop-color="#ff745f"/>
      <stop offset="1" stop-color="#ffd65a"/>
    </linearGradient>
    <filter id="glow" x="-30%" y="-30%" width="160%" height="160%">
      <feGaussianBlur stdDeviation="6" result="blur"/>
      <feMerge>
        <feMergeNode in="blur"/>
        <feMergeNode in="SourceGraphic"/>
      </feMerge>
    </filter>
  </defs>
  <rect width="128" height="128" rx="30" fill="url(#bg)"/>
  <circle cx="92" cy="30" r="31" fill="#ff4e57" opacity=".18"/>
  <circle cx="34" cy="98" r="37" fill="#ffd65a" opacity=".11"/>
  <path d="M35 98V30h34c15 0 24 8 24 20 0 7-4 13-11 16 9 3 14 10 14 20 0 13-10 12-27 12H35Zm19-42h14c5 0 8-3 8-7s-3-7-8-7H54v14Zm0 29h17c5 0 8-3 8-8s-3-8-8-8H54v16Z" fill="#f5f0e7"/>
  <path d="M24 103C44 69 56 83 77 55c11-15 19-22 30-29" fill="none" stroke="url(#mark)" stroke-width="9" stroke-linecap="round" stroke-linejoin="round" filter="url(#glow)"/>
  <circle cx="77" cy="55" r="6" fill="#ffd65a"/>
  <circle cx="107" cy="26" r="6" fill="#83ff73"/>
</svg>
